<svg xmlns="http://www.w3.org/2000/svg" viewBox="0 0 512 512">
  <!-- Background gradient -->
  <defs>
    <linearGradient id="grad" x1="0%" y1="0%" x2="100%" y2="100%">
      <stop offset="0%" style="stop-color:#0a66ff;stop-opacity:1" />
      <stop offset="100%" style="stop-color:#0052cc;stop-opacity:1" />
    </linearGradient>
  </defs>
  <rect width="512" height="512" fill="url(#grad)" rx="120"/>

  <!-- Cute piggy bank (larger) -->
  <g transform="translate(256, 256)">
    <!-- Body -->
    <circle cx="0" cy="-20" r="70" fill="#ffd700"/>
    <ellipse cx="0" cy="30" rx="72" ry="35" fill="#ffd700"/>

    <!-- Head -->
    <circle cx="0" cy="-95" r="45" fill="#ffd700"/>

    <!-- Snout -->
    <ellipse cx="0" cy="-105" rx="20" ry="15" fill="#ffed4e"/>
    <circle cx="-8" cy="-105" r="3" fill="#333"/>
    <circle cx="8" cy="-105" r="3" fill="#333"/>

    <!-- Ears -->
    <ellipse cx="-30" cy="-125" rx="15" ry="25" fill="#ffd700"/>
    <ellipse cx="30" cy="-125" rx="15" ry="25" fill="#ffd700"/>
    <ellipse cx="-30" cy="-120" rx="7" ry="12" fill="#ffed4e"/>
    <ellipse cx="30" cy="-120" rx="7" ry="12" fill="#ffed4e"/>

    <!-- Eyes -->
    <circle cx="-15" cy="-100" r="8" fill="#000"/>
    <circle cx="15" cy="-100" r="8" fill="#000"/>
    <circle cx="-13" cy="-100" r="3" fill="#fff"/>
    <circle cx="17" cy="-100" r="3" fill="#fff"/>

    <!-- Eyebrows (cute expression) -->
    <path d="M -22 -108 Q -15 -112 -8 -108" stroke="#000" stroke-width="2" fill="none" stroke-linecap="round"/>
    <path d="M 8 -108 Q 15 -112 22 -108" stroke="#000" stroke-width="2" fill="none" stroke-linecap="round"/>

    <!-- Mouth (cute smile) -->
    <path d="M -10 -88 Q 0 -82 10 -88" stroke="#000" stroke-width="2.5" fill="none" stroke-linecap="round"/>

    <!-- Legs -->
    <rect x="-40" y="45" width="15" height="40" rx="7" fill="#ffd700"/>
    <rect x="-10" y="45" width="15" height="40" rx="7" fill="#ffd700"/>
    <rect x="10" y="45" width="15" height="40" rx="7" fill="#ffd700"/>
    <rect x="40" y="45" width="15" height="40" rx="7" fill="#ffd700"/>

    <!-- Hooves -->
    <ellipse cx="-32" cy="92" rx="10" ry="6" fill="#ffed4e"/>
    <ellipse cx="-2" cy="92" rx="10" ry="6" fill="#ffed4e"/>
    <ellipse cx="18" cy="92" rx="10" ry="6" fill="#ffed4e"/>
    <ellipse cx="48" cy="92" rx="10" ry="6" fill="#ffed4e"/>

    <!-- Tail (curly) -->
    <path d="M 70 -10 Q 95 -25 100 -50" stroke="#ffd700" stroke-width="8" fill="none" stroke-linecap="round"/>

    <!-- Coin slot on back -->
    <g>
      <rect x="50" y="-35" width="20" height="25" rx="3" fill="#ffed4e" stroke="#ffc700" stroke-width="2"/>
      <rect x="55" y="-30" width="10" height="5" fill="#4f46e5" opacity="0.3"/>
    </g>

    <!-- Decorative coins floating -->
    <g opacity="0.8">
      <!-- Coin 1 -->
      <circle cx="-80" cy="-40" r="18" fill="#ffd700" stroke="#ffed4e" stroke-width="2"/>
      <circle cx="-80" cy="-40" r="15" fill="none" stroke="#ffed4e" stroke-width="1" stroke-dasharray="4,3"/>
      <text x="-80" y="-35" font-size="20" font-weight="bold" fill="#0a66ff" text-anchor="middle">$</text>

      <!-- Coin 2 -->
      <circle cx="85" cy="20" r="15" fill="#ffd700" stroke="#ffed4e" stroke-width="1.5"/>
      <text x="85" y="25" font-size="16" font-weight="bold" fill="#0a66ff" text-anchor="middle">¥</text>

      <!-- Coin 3 -->
      <circle cx="-60" cy="60" r="12" fill="#ffd700" stroke="#ffed4e" stroke-width="1"/>
      <text x="-60" y="64" font-size="12" font-weight="bold" fill="#0a66ff" text-anchor="middle">€</text>
    </g>

    <!-- Blush marks (cute) -->
    <circle cx="-50" cy="-70" r="12" fill="#ff69b4" opacity="0.4"/>
    <circle cx="50" cy="-70" r="12" fill="#ff69b4" opacity="0.4"/>
  </g>
</svg>
